<svg xmlns="http://www.w3.org/2000/svg" viewBox="0 0 64 64">
  <rect width="64" height="64" rx="16" fill="#071A2E"/>
  <g fill="#38BDF8">
    <rect x="16" y="30" width="8" height="8" rx="2"/>
    <rect x="26" y="30" width="8" height="8" rx="2"/>
    <rect x="36" y="30" width="8" height="8" rx="2"/>
    <rect x="26" y="20" width="8" height="8" rx="2"/>
    <rect x="36" y="20" width="8" height="8" rx="2"/>
  </g>
  <path d="M14 40h33c2 0 4-.5 5.5-1.5 2.1-1.4 3.6-3.8 4.5-6.9-1 .5-2.7.5-4-.2-.9-2.9-3-4.5-5.7-4.5-.6 0-1.2.1-1.8.3.9 1.1 1.4 2.5 1.5 4.1H14c0 9.2 6.3 14.7 15 14.7h6.7c7.6 0 13.8-2.4 17.8-7.2H14z" fill="#7DD3FC"/>
</svg>
